<?xml version="1.0" encoding="iso-8859-1"?>
<!-- Generator: Adobe Illustrator 18.0.0, SVG Export Plug-In . SVG Version: 6.00 Build 0)  -->
<!DOCTYPE svg PUBLIC "-//W3C//DTD SVG 1.1//EN" "http://www.w3.org/Graphics/SVG/1.1/DTD/svg11.dtd">
<svg version="1.1" id="Capa_1" xmlns="http://www.w3.org/2000/svg" xmlns:xlink="http://www.w3.org/1999/xlink" x="0px" y="0px"
	 viewBox="0 0 86.311 51.093" style="enable-background:new 0 0 86.311 51.093;" xml:space="preserve">
<g>
	<path d="M84.836,21.703c-0.929-1.094-1.914-2.115-2.859-3.047C76.499,13.259,70.619,8.75,64.118,5.39
		c-4.656-2.406-9.225-3.991-13.641-4.781C47.814,0.133,45.368,0,43.212,0c-2.25,0-4.746,0.119-7.407,0.609
		C31.34,1.432,26.768,3.02,22.165,5.39C15.846,8.645,9.923,13.117,4.306,18.656c-1.086,1.07-2.024,2.055-2.859,3.047
		c-1.93,2.29-1.928,5.302,0,7.593c2.291,2.724,5.351,5.568,9.187,8.625c8.164,6.502,16.164,10.632,24,12.332
		c2.758,0.59,5.625,0.84,8.578,0.84c2.859,0,5.678-0.25,8.437-0.84c7.928-1.71,15.945-5.81,24.093-12.332
		c4.086-3.271,7.065-6.19,9.094-8.625C86.792,26.949,86.814,24.032,84.836,21.703z M80.899,25.921
		c-2.063,2.532-4.913,5.155-8.438,7.969c-7.397,5.906-14.663,9.743-21.89,11.253c-2.664,0.55-5.109,0.75-7.359,0.75h-0.141
		c-2.297,0-4.694-0.21-7.266-0.75c-7.132-1.52-14.465-5.264-21.984-11.253c-3.544-2.823-6.328-5.484-8.343-7.969
		c-0.328-0.234-0.328-0.515,0-0.843c0.234-0.328,0.644-0.809,1.218-1.407c0.598-0.621,1.032-1.078,1.266-1.359
		c5.437-5.344,10.992-9.374,16.594-12.187c4.477-2.249,8.533-3.736,12.187-4.36c2.112-0.36,4.266-0.562,6.469-0.562
		c2.109,0,4.22,0.178,6.421,0.562c3.705,0.647,7.771,2.131,12.188,4.36c5.708,2.88,11.203,6.89,16.5,12.187
		c1.218,1.219,2.079,2.142,2.578,2.766C81.151,25.393,81.133,25.687,80.899,25.921z"/>
	<path d="M43.212,9.047c-4.547,0-8.485,1.593-11.719,4.828c-3.234,3.234-4.828,7.125-4.828,11.671c0,4.547,1.582,8.403,4.828,11.625
		c3.223,3.2,7.172,4.781,11.719,4.781c4.546,0,8.39-1.593,11.578-4.781c3.234-3.234,4.828-7.078,4.828-11.625
		c0-4.546-1.606-8.425-4.828-11.671C51.59,10.652,47.758,9.047,43.212,9.047z M51.133,33.515c-2.203,2.203-4.828,3.281-7.921,3.281
		c-3.141,0-5.813-1.125-8.016-3.328s-3.328-4.875-3.328-7.922c0-3.14,1.125-5.765,3.328-7.968s4.875-3.328,8.016-3.328
		c3.14,0,5.753,1.136,7.921,3.328c2.192,2.215,3.282,4.828,3.282,7.968C54.415,28.64,53.336,31.312,51.133,33.515z"/>
</g>
<g>
</g>
<g>
</g>
<g>
</g>
<g>
</g>
<g>
</g>
<g>
</g>
<g>
</g>
<g>
</g>
<g>
</g>
<g>
</g>
<g>
</g>
<g>
</g>
<g>
</g>
<g>
</g>
<g>
</g>
</svg>
